HIERARCHY
ROOT Hips
{
	OFFSET -0.001795 -0.223333 0.028219
	CHANNELS 6 Xposition Yposition Zposition Zrotation Yrotation Xrotation 
	JOINT LeftUpLeg
	{
		OFFSET 0.069520 -0.091406 -0.006815
		CHANNELS 3 Zrotation Yrotation Xrotation
		JOINT LeftLeg
		{
			OFFSET 0.034277 -0.375199 -0.004496
			CHANNELS 3 Zrotation Yrotation Xrotation
			JOINT LeftFoot
			{
				OFFSET -0.013596 -0.397961 -0.043693
				CHANNELS 3 Zrotation Yrotation Xrotation
				JOINT LeftToe
				{
					OFFSET 0.026358 -0.055791 0.119288
					CHANNELS 3 Zrotation Yrotation Xrotation
					End Site
					{
						OFFSET 0.000000 0.000000 0.000000
					}
				}
			}
		}
	}
	JOINT RightUpLeg
	{
		OFFSET -0.067670 -0.090522 -0.004320
		CHANNELS 3 Zrotation Yrotation Xrotation
		JOINT RightLeg
		{
			OFFSET -0.038290 -0.382569 -0.008850
			CHANNELS 3 Zrotation Yrotation Xrotation
			JOINT RightFoot
			{
				OFFSET 0.015774 -0.398415 -0.042312
				CHANNELS 3 Zrotation Yrotation Xrotation
				JOINT RightToe
				{
					OFFSET -0.025372 -0.048144 0.123348
					CHANNELS 3 Zrotation Yrotation Xrotation
					End Site
					{
						OFFSET 0.000000 0.000000 0.000000
					}
				}
			}
		}
	}
	JOINT Spine
	{
		OFFSET -0.002533 0.108963 -0.026696
		CHANNELS 3 Zrotation Yrotation Xrotation
		JOINT Spine1
		{
			OFFSET 0.005487 0.135180 0.001092
			CHANNELS 3 Zrotation Yrotation Xrotation
			JOINT Spine2
			{
				OFFSET 0.001457 0.052922 0.025425
				CHANNELS 3 Zrotation Yrotation Xrotation
				JOINT Neck
				{
					OFFSET -0.002778 0.213870 -0.042857
					CHANNELS 3 Zrotation Yrotation Xrotation
					JOINT Head
					{
						OFFSET 0.005152 0.064970 0.051349
						CHANNELS 3 Zrotation Yrotation Xrotation
						End Site
						{
							OFFSET 0.000000 0.000000 0.000000
						}
					}
				}
				JOINT LeftShoulder
				{
					OFFSET 0.078845 0.121749 -0.034090
					CHANNELS 3 Zrotation Yrotation Xrotation
					JOINT LeftArm
					{
						OFFSET 0.090977 0.030469 -0.008868
						CHANNELS 3 Zrotation Yrotation Xrotation
						JOINT LeftForeArm
						{
							OFFSET 0.259612 -0.012772 -0.027456
							CHANNELS 3 Zrotation Yrotation Xrotation
							JOINT LeftHand
							{
								OFFSET 0.249234 0.008986 -0.001171
								CHANNELS 3 Zrotation Yrotation Xrotation
								End Site
								{
									OFFSET 0.000000 0.000000 0.000000
								}
							}
						}
					}
				}
				JOINT RightShoulder
				{
					OFFSET -0.081759 0.118833 -0.038615
					CHANNELS 3 Zrotation Yrotation Xrotation
					JOINT RightArm
					{
						OFFSET -0.096012 0.032551 -0.009143
						CHANNELS 3 Zrotation Yrotation Xrotation
						JOINT RightForeArm
						{
							OFFSET -0.253742 -0.013329 -0.021401
							CHANNELS 3 Zrotation Yrotation Xrotation
							JOINT RightHand
							{
								OFFSET -0.255298 0.007772 -0.005559
								CHANNELS 3 Zrotation Yrotation Xrotation
								End Site
								{
									OFFSET 0.000000 0.000000 0.000000
								}
							}
						}
					}
				}
			}
		}
	}
}
MOTION
Frames: 7
Frame Time: 0.050000
0.000000 0.921558 0.000000 -1.927524 -7.410062 -1.592828 11.374315 0.539767 -19.323605 -9.399610 3.175730 26.238881 11.234922 22.550777 2.609282 0.000000 0.000000 0.000000 -3.612283 0.247829 -1.829867 5.771250 -0.515928 10.286042 -6.908522 -16.125250 -2.094069 0.000000 0.000000 0.000000 7.718309 -0.984825 9.566286 -7.851611 2.428129 -23.900072 2.683457 15.049546 29.014120 9.063167 -0.892774 -33.160582 0.000000 0.000000 0.000000 -26.302310 -10.372814 0.945279 -59.700085 2.473641 -10.127272 -4.774993 -28.824543 2.210405 0.000000 0.000000 0.000000 29.168193 0.703007 2.868304 64.984089 13.752280 -2.157390 1.101855 31.521181 2.878049 0.000000 0.000000 0.000000 
-0.008071 0.923606 0.025468 -1.886792 -7.094521 -2.601088 10.523629 0.359686 -18.649669 -7.991009 2.464355 24.484101 9.475764 19.341071 1.723685 0.000000 0.000000 0.000000 -3.310806 -0.035238 2.256693 5.749910 -0.535666 7.872726 -6.569268 -15.374212 -1.683442 0.000000 0.000000 0.000000 7.225666 -0.837716 8.616843 -7.760368 2.408532 -24.216391 3.005993 14.983643 30.155556 6.635342 0.574075 -35.285429 0.000000 0.000000 0.000000 -27.429078 -8.351555 -0.480107 -56.966938 4.368291 -10.492761 -8.988450 -28.912028 3.280374 0.000000 0.000000 0.000000 30.447647 -0.083588 2.547169 65.423559 12.671350 -2.997895 1.782329 32.747907 3.328113 0.000000 0.000000 0.000000 
-0.011960 0.924938 0.051061 -1.928689 -7.829773 -3.829279 9.889748 0.262063 -16.225368 -5.997861 1.711221 22.741626 9.571897 19.440438 3.633312 0.000000 0.000000 0.000000 -3.490976 -0.235738 5.956136 5.570158 -0.500887 7.054133 -6.045987 -14.595492 0.578020 0.000000 0.000000 0.000000 6.373822 -0.610215 7.008540 -7.458887 2.332914 -24.153562 2.642295 17.197997 30.576586 7.343741 0.422821 -34.293070 0.000000 0.000000 0.000000 -23.984525 -7.535793 -1.071105 -58.750614 4.786278 -11.312682 -6.313836 -27.658422 2.376050 0.000000 0.000000 0.000000 31.993733 -0.727699 2.950061 63.796795 13.240117 -3.149579 2.862388 31.542924 3.526782 0.000000 0.000000 0.000000 
-0.010022 0.923492 0.075813 -2.733748 -9.124422 -4.094794 8.709410 0.098875 -12.336856 -3.800263 0.940901 19.853684 8.448720 17.455868 2.993750 0.000000 0.000000 0.000000 -3.476542 -0.293732 7.462716 5.322179 -0.441589 7.111808 -6.226007 -14.586382 -0.643959 0.000000 0.000000 0.000000 6.892190 -0.428513 4.932957 -8.415916 2.599353 -23.361652 3.888435 17.585003 31.007755 8.010878 -0.204206 -32.187551 0.000000 0.000000 0.000000 -24.956237 -5.883841 -2.131760 -57.420006 6.955172 -11.923542 -6.546089 -28.729685 2.528346 0.000000 0.000000 0.000000 31.875875 -2.466974 1.566905 64.892323 11.040241 -4.232682 3.984255 33.018461 4.176135 0.000000 0.000000 0.000000 
-0.001252 0.922390 0.096780 -2.891028 -10.493151 -5.063646 8.544028 0.143098 -7.383030 -3.651271 0.875270 17.410348 7.137511 15.038705 2.118519 0.000000 0.000000 0.000000 -4.848143 -0.117207 7.166984 5.729343 -0.440385 10.379106 -6.069229 -13.825293 -1.662764 0.000000 0.000000 0.000000 6.543496 -0.325709 4.191031 -7.800105 2.417146 -23.495893 3.420118 18.496721 31.445324 8.351264 -0.448136 -31.652820 0.000000 0.000000 0.000000 -24.324408 -4.170011 -2.983210 -56.098044 5.825077 -11.214519 -6.546391 -27.593789 2.424834 0.000000 0.000000 0.000000 32.893237 -2.814640 1.319664 63.493535 8.467942 -5.835126 5.571989 33.771773 4.729433 0.000000 0.000000 0.000000 
0.014688 0.921458 0.109248 -2.686346 -10.355597 -6.041431 7.823328 0.122830 -4.821368 -5.218996 1.286675 16.523351 7.631268 16.079126 0.768067 0.000000 0.000000 0.000000 -6.919718 0.107570 5.749849 6.115985 -0.439379 15.188109 -5.058235 -12.579748 1.545136 0.000000 0.000000 0.000000 5.390819 -0.324141 4.623290 -8.211811 2.541888 -23.420789 4.273696 17.416613 31.943730 8.044078 -0.275811 -33.069404 0.000000 0.000000 0.000000 -25.327164 -4.438973 -2.708668 -55.902971 4.154468 -10.385896 -4.548962 -27.360920 1.987945 0.000000 0.000000 0.000000 31.993651 -2.586413 1.101896 63.721593 6.967923 -6.520685 5.216178 34.195367 4.660423 0.000000 0.000000 0.000000 
0.034654 0.923911 0.112238 -2.130206 -9.543018 -6.209034 6.153491 0.011517 -3.972927 -5.731633 1.356091 15.695288 8.166825 17.124154 2.331358 0.000000 0.000000 0.000000 -9.688172 0.352873 -0.142805 8.009534 -0.772828 25.043413 -6.860781 -17.322234 5.304391 0.000000 0.000000 0.000000 3.884575 -0.393789 6.170525 -7.437121 2.342038 -23.707101 3.441941 16.516525 32.319174 8.107378 -0.212193 -34.738918 0.000000 0.000000 0.000000 -25.318802 -3.941848 -2.813610 -56.033406 2.926788 -9.962989 -4.178816 -28.310146 2.011472 0.000000 0.000000 0.000000 32.469668 -3.175839 0.588017 62.261658 5.647743 -7.324936 6.972471 37.189744 5.845391 0.000000 0.000000 0.000000 
